<mxfile host="app.diagrams.net" agent="Mozilla/5.0 (Windows NT 10.0; Win64; x64) AppleWebKit/537.36 (KHTML, like Gecko) Chrome/130.0.0.0 Safari/537.36" version="24.8.1">
  <diagram name="Page-1" id="V_xp4HTMAM1plF9ofiC3">
    <mxGraphModel dx="1434" dy="746" grid="1" gridSize="10" guides="1" tooltips="1" connect="1" arrows="1" fold="1" page="1" pageScale="1" pageWidth="827" pageHeight="1169" math="0" shadow="0">
      <root>
        <mxCell id="0" />
        <mxCell id="1" parent="0" />
        <UserObject label="" tags="背景" id="V74mTdHurERI9T-NjPgk-1">
          <mxCell style="vsdxID=1;fillColor=none;gradientColor=none;points=[[0.06,1,0],[0.13,1,0],[0.19,1,0],[0.25,1,0],[0.31,1,0],[0.37,1,0],[0.44,1,0],[0.5,1,0],[0.56,1,0],[0.63,1,0],[0.69,1,0],[0.75,1,0],[0.81,1,0],[0.88,1,0],[0.94,1,0],[0.06,0,0],[0.13,0,0],[0.19,0,0],[0.25,0,0],[0.31,0,0],[0.37,0,0],[0.44,0,0],[0.5,0,0],[0.56,0,0],[0.63,0,0],[0.69,0,0],[0.75,0,0],[0.81,0,0],[0.88,0,0],[0.94,0,0]];labelBackgroundColor=none;rounded=0;strokeColor=none;html=1;whiteSpace=wrap;" vertex="1" parent="1">
            <mxGeometry x="169" y="48" width="1326" height="989" as="geometry" />
          </mxCell>
        </UserObject>
        <mxCell id="V74mTdHurERI9T-NjPgk-2" style="vsdxID=2;fillColor=#FFFFFF;gradientColor=none;fillOpacity=0;shape=stencil(nZBLDoAgDERP0z3SIyjew0SURgSD+Lu9kMZoXLhwN9O+tukAlrNpJg1SzDH4QW/URgNYgZTkjA4UkwJUgGXng+6DX1zLfmoymdXo17xh5zmRJ6Q42BWCfc2oJfdAr+Yv+AP9Cb7OJ3H/2JG1HNGz/84klThPVCc=);points=[[0.06,1,0],[0.13,1,0],[0.19,1,0],[0.25,1,0],[0.31,1,0],[0.37,1,0],[0.44,1,0],[0.5,1,0],[0.56,1,0],[0.63,1,0],[0.69,1,0],[0.75,1,0],[0.81,1,0],[0.88,1,0],[0.94,1,0],[0.06,0,0],[0.13,0,0],[0.19,0,0],[0.25,0,0],[0.31,0,0],[0.37,0,0],[0.44,0,0],[0.5,0,0],[0.56,0,0],[0.63,0,0],[0.69,0,0],[0.75,0,0],[0.81,0,0],[0.88,0,0],[0.94,0,0]];labelBackgroundColor=none;rounded=0;html=1;whiteSpace=wrap;" vertex="1" parent="V74mTdHurERI9T-NjPgk-1">
          <mxGeometry width="1326" height="989" as="geometry" />
        </mxCell>
        <mxCell id="V74mTdHurERI9T-NjPgk-3" value="&lt;div style=&quot;font-size: 1px&quot;&gt;&lt;p style=&quot;text-align:left;margin-left:0;margin-right:0;margin-top:0px;margin-bottom:0px;text-indent:0;vertical-align:middle;direction:ltr;&quot;&gt;&lt;font style=&quot;font-size:22.58px;font-family:Calibri;color:#000000;direction:ltr;letter-spacing:0px;line-height:120%;opacity:1&quot;&gt;标题&lt;/font&gt;&lt;/p&gt;&lt;/div&gt;" style="verticalAlign=middle;align=left;overflow=width;vsdxID=3;fillColor=#FFFFFF;gradientColor=none;shape=stencil(nZBLDoAgDERP0z3SIyjew0SURgSD+Lu9kMZoXLhwN9O+tukAlrNpJg1SzDH4QW/URgNYgZTkjA4UkwJUgGXng+6DX1zLfmoymdXo17xh5zmRJ6Q42BWCfc2oJfdAr+Yv+AP9Cb7OJ3H/2JG1HNGz/84klThPVCc=);points=[[0.06,1,0],[0.13,1,0],[0.19,1,0],[0.25,1,0],[0.31,1,0],[0.37,1,0],[0.44,1,0],[0.5,1,0],[0.56,1,0],[0.63,1,0],[0.69,1,0],[0.75,1,0],[0.81,1,0],[0.88,1,0],[0.94,1,0],[0.06,0,0],[0.13,0,0],[0.19,0,0],[0.25,0,0],[0.31,0,0],[0.37,0,0],[0.44,0,0],[0.5,0,0],[0.56,0,0],[0.63,0,0],[0.69,0,0],[0.75,0,0],[0.81,0,0],[0.88,0,0],[0.94,0,0]];labelBackgroundColor=none;rounded=0;html=1;whiteSpace=wrap;" vertex="1" parent="V74mTdHurERI9T-NjPgk-1">
          <mxGeometry width="1326" height="40" as="geometry" />
        </mxCell>
        <UserObject label="" tags="Background" id="V74mTdHurERI9T-NjPgk-4">
          <mxCell style="vsdxID=4;fillColor=#FFFFFF;gradientColor=none;fillOpacity=0;shape=stencil(nZBLDoAgDERP0z3SIyjew0SURgSD+Lu9kMZoXLhwN9N5bdMClrNpJg1SzDH4QW/URgNYgZTkjA4UkwJUgGXng+6DX1zLfmoymdXo1zxh5z6RO6Q42BWCfc2oJfdAr/AX/IH+BF/rk7hv7MjaZ/L+RirxJ1Gd);strokeWidth=2;points=[];labelBackgroundColor=none;rounded=0;html=1;whiteSpace=wrap;" vertex="1" parent="1">
            <mxGeometry x="169" y="1037" width="1326" height="949" as="geometry" />
          </mxCell>
        </UserObject>
        <UserObject label="" tags="背景" id="V74mTdHurERI9T-NjPgk-5">
          <mxCell style="vsdxID=5;fillColor=none;gradientColor=none;points=[];labelBackgroundColor=none;rounded=0;strokeColor=none;html=1;whiteSpace=wrap;" vertex="1" parent="1">
            <mxGeometry x="169" y="88" width="221" height="949" as="geometry" />
          </mxCell>
        </UserObject>
        <mxCell id="V74mTdHurERI9T-NjPgk-6" style="vsdxID=6;fillColor=#FFFFFF;gradientColor=none;fillOpacity=0;shape=stencil(nZBLDoAgDERP0z3SIyjew0SURgSD+Lu9kMZoXLhwN9O+tukAlrNpJg1SzDH4QW/URgNYgZTkjA4UkwJUgGXng+6DX1zLfmoymdXo17xh5zmRJ6Q42BWCfc2oJfdAr+Yv+AP9Cb7OJ3H/2JG1HNGz/84klThPVCc=);points=[];labelBackgroundColor=none;rounded=0;html=1;whiteSpace=wrap;" vertex="1" parent="V74mTdHurERI9T-NjPgk-5">
          <mxGeometry width="221" height="949" as="geometry" />
        </mxCell>
        <mxCell id="V74mTdHurERI9T-NjPgk-7" value="&lt;div style=&quot;font-size: 1px&quot;&gt;&lt;p style=&quot;text-align:center;margin-left:0;margin-right:0;margin-top:0px;margin-bottom:0px;text-indent:0;vertical-align:middle;direction:ltr;&quot;&gt;&lt;font style=&quot;font-size:12px;font-family:0;color:#000000;direction:ltr;letter-spacing:0px;line-height:120%;opacity:1&quot;&gt;机务/安全&lt;/font&gt;&lt;/p&gt;&lt;/div&gt;" style="verticalAlign=middle;align=center;overflow=width;vsdxID=7;fillColor=#FFFFFF;gradientColor=none;shape=stencil(nZBLDoAgDERP0z3SIyjew0SURgSD+Lu9kMZoXLhwN9O+tukAlrNpJg1SzDH4QW/URgNYgZTkjA4UkwJUgGXng+6DX1zLfmoymdXo17xh5zmRJ6Q42BWCfc2oJfdAr+Yv+AP9Cb7OJ3H/2JG1HNGz/84klThPVCc=);points=[];labelBackgroundColor=none;rounded=0;html=1;whiteSpace=wrap;" vertex="1" parent="V74mTdHurERI9T-NjPgk-5">
          <mxGeometry width="221" height="30" as="geometry" />
        </mxCell>
        <UserObject label="" tags="背景" id="V74mTdHurERI9T-NjPgk-8">
          <mxCell style="vsdxID=8;fillColor=none;gradientColor=none;points=[];labelBackgroundColor=none;rounded=0;strokeColor=none;html=1;whiteSpace=wrap;" vertex="1" parent="1">
            <mxGeometry x="390" y="88" width="221" height="949" as="geometry" />
          </mxCell>
        </UserObject>
        <mxCell id="V74mTdHurERI9T-NjPgk-9" style="vsdxID=9;fillColor=#FFFFFF;gradientColor=none;fillOpacity=0;shape=stencil(nZBLDoAgDERP0z3SIyjew0SURgSD+Lu9kMZoXLhwN9O+tukAlrNpJg1SzDH4QW/URgNYgZTkjA4UkwJUgGXng+6DX1zLfmoymdXo17xh5zmRJ6Q42BWCfc2oJfdAr+Yv+AP9Cb7OJ3H/2JG1HNGz/84klThPVCc=);points=[];labelBackgroundColor=none;rounded=0;html=1;whiteSpace=wrap;" vertex="1" parent="V74mTdHurERI9T-NjPgk-8">
          <mxGeometry width="221" height="949" as="geometry" />
        </mxCell>
        <mxCell id="V74mTdHurERI9T-NjPgk-10" value="&lt;div style=&quot;font-size: 1px&quot;&gt;&lt;p style=&quot;text-align:center;margin-left:0;margin-right:0;margin-top:0px;margin-bottom:0px;text-indent:0;vertical-align:middle;direction:ltr;&quot;&gt;&lt;font style=&quot;font-size:12px;font-family:0;color:#000000;direction:ltr;letter-spacing:0px;line-height:120%;opacity:1&quot;&gt;综合&lt;/font&gt;&lt;/p&gt;&lt;/div&gt;" style="verticalAlign=middle;align=center;overflow=width;vsdxID=10;fillColor=#FFFFFF;gradientColor=none;shape=stencil(nZBLDoAgDERP0z3SIyjew0SURgSD+Lu9kMZoXLhwN9O+tukAlrNpJg1SzDH4QW/URgNYgZTkjA4UkwJUgGXng+6DX1zLfmoymdXo17xh5zmRJ6Q42BWCfc2oJfdAr+Yv+AP9Cb7OJ3H/2JG1HNGz/84klThPVCc=);points=[];labelBackgroundColor=none;rounded=0;html=1;whiteSpace=wrap;" vertex="1" parent="V74mTdHurERI9T-NjPgk-8">
          <mxGeometry width="221" height="30" as="geometry" />
        </mxCell>
        <UserObject label="" tags="背景" id="V74mTdHurERI9T-NjPgk-11">
          <mxCell style="vsdxID=11;fillColor=none;gradientColor=none;points=[];labelBackgroundColor=none;rounded=0;strokeColor=#FF8000;html=1;whiteSpace=wrap;" vertex="1" parent="1">
            <mxGeometry x="832" y="88" width="221" height="949" as="geometry" />
          </mxCell>
        </UserObject>
        <mxCell id="V74mTdHurERI9T-NjPgk-12" style="vsdxID=12;fillColor=#FFFFFF;gradientColor=none;fillOpacity=0;shape=stencil(nZBLDoAgDERP0z3SIyjew0SURgSD+Lu9kMZoXLhwN9O+tukAlrNpJg1SzDH4QW/URgNYgZTkjA4UkwJUgGXng+6DX1zLfmoymdXo17xh5zmRJ6Q42BWCfc2oJfdAr+Yv+AP9Cb7OJ3H/2JG1HNGz/84klThPVCc=);points=[];labelBackgroundColor=none;rounded=0;html=1;whiteSpace=wrap;" vertex="1" parent="V74mTdHurERI9T-NjPgk-11">
          <mxGeometry width="221" height="949" as="geometry" />
        </mxCell>
        <mxCell id="V74mTdHurERI9T-NjPgk-13" value="&lt;div style=&quot;font-size: 1px&quot;&gt;&lt;p style=&quot;text-align:center;margin-left:0;margin-right:0;margin-top:0px;margin-bottom:0px;text-indent:0;vertical-align:middle;direction:ltr;&quot;&gt;&lt;font style=&quot;font-size:12px;font-family:0;color:#000000;direction:ltr;letter-spacing:0px;line-height:120%;opacity:1&quot;&gt;劳务/司机&lt;/font&gt;&lt;/p&gt;&lt;/div&gt;" style="verticalAlign=middle;align=center;overflow=width;vsdxID=13;fillColor=#FFFFFF;gradientColor=none;shape=stencil(nZBLDoAgDERP0z3SIyjew0SURgSD+Lu9kMZoXLhwN9O+tukAlrNpJg1SzDH4QW/URgNYgZTkjA4UkwJUgGXng+6DX1zLfmoymdXo17xh5zmRJ6Q42BWCfc2oJfdAr+Yv+AP9Cb7OJ3H/2JG1HNGz/84klThPVCc=);points=[];labelBackgroundColor=none;rounded=0;html=1;whiteSpace=wrap;" vertex="1" parent="V74mTdHurERI9T-NjPgk-11">
          <mxGeometry width="221" height="30" as="geometry" />
        </mxCell>
        <mxCell id="V74mTdHurERI9T-NjPgk-70" value="手机APP打卡程序" style="text;html=1;align=center;verticalAlign=middle;whiteSpace=wrap;rounded=0;fillColor=default;fontColor=#FF8000;" vertex="1" parent="V74mTdHurERI9T-NjPgk-11">
          <mxGeometry x="85" y="69" width="60" height="30" as="geometry" />
        </mxCell>
        <mxCell id="V74mTdHurERI9T-NjPgk-75" value="码头过磅称重系统" style="text;html=1;align=center;verticalAlign=middle;whiteSpace=wrap;rounded=0;fillColor=default;fontColor=#FF8000;" vertex="1" parent="V74mTdHurERI9T-NjPgk-11">
          <mxGeometry x="80.5" y="452" width="60" height="30" as="geometry" />
        </mxCell>
        <UserObject label="" tags="背景" id="V74mTdHurERI9T-NjPgk-14">
          <mxCell style="vsdxID=14;fillColor=none;gradientColor=none;points=[];labelBackgroundColor=none;rounded=0;strokeColor=none;html=1;whiteSpace=wrap;" vertex="1" parent="1">
            <mxGeometry x="611" y="88" width="221" height="949" as="geometry" />
          </mxCell>
        </UserObject>
        <mxCell id="V74mTdHurERI9T-NjPgk-15" style="vsdxID=15;fillColor=#FFFFFF;gradientColor=none;fillOpacity=0;shape=stencil(nZBLDoAgDERP0z3SIyjew0SURgSD+Lu9kMZoXLhwN9O+tukAlrNpJg1SzDH4QW/URgNYgZTkjA4UkwJUgGXng+6DX1zLfmoymdXo17xh5zmRJ6Q42BWCfc2oJfdAr+Yv+AP9Cb7OJ3H/2JG1HNGz/84klThPVCc=);points=[];labelBackgroundColor=none;rounded=0;html=1;whiteSpace=wrap;" vertex="1" parent="V74mTdHurERI9T-NjPgk-14">
          <mxGeometry width="221" height="949" as="geometry" />
        </mxCell>
        <mxCell id="V74mTdHurERI9T-NjPgk-16" value="&lt;div style=&quot;font-size: 1px&quot;&gt;&lt;p style=&quot;text-align:center;margin-left:0;margin-right:0;margin-top:0px;margin-bottom:0px;text-indent:0;vertical-align:middle;direction:ltr;&quot;&gt;&lt;font style=&quot;font-size:12px;font-family:0;color:#000000;direction:ltr;letter-spacing:0px;line-height:120%;opacity:1&quot;&gt;调度&lt;/font&gt;&lt;/p&gt;&lt;/div&gt;" style="verticalAlign=middle;align=center;overflow=width;vsdxID=16;fillColor=#FFFFFF;gradientColor=none;shape=stencil(nZBLDoAgDERP0z3SIyjew0SURgSD+Lu9kMZoXLhwN9O+tukAlrNpJg1SzDH4QW/URgNYgZTkjA4UkwJUgGXng+6DX1zLfmoymdXo17xh5zmRJ6Q42BWCfc2oJfdAr+Yv+AP9Cb7OJ3H/2JG1HNGz/84klThPVCc=);points=[];labelBackgroundColor=none;rounded=0;html=1;whiteSpace=wrap;" vertex="1" parent="V74mTdHurERI9T-NjPgk-14">
          <mxGeometry width="221" height="30" as="geometry" />
        </mxCell>
        <UserObject label="" tags="背景" id="V74mTdHurERI9T-NjPgk-17">
          <mxCell style="vsdxID=17;fillColor=none;gradientColor=none;points=[];labelBackgroundColor=none;rounded=0;strokeColor=none;html=1;whiteSpace=wrap;" vertex="1" parent="1">
            <mxGeometry x="1053" y="88" width="221" height="949" as="geometry" />
          </mxCell>
        </UserObject>
        <mxCell id="V74mTdHurERI9T-NjPgk-18" style="vsdxID=18;fillColor=#FFFFFF;gradientColor=none;fillOpacity=0;shape=stencil(nZBLDoAgDERP0z3SIyjew0SURgSD+Lu9kMZoXLhwN9O+tukAlrNpJg1SzDH4QW/URgNYgZTkjA4UkwJUgGXng+6DX1zLfmoymdXo17xh5zmRJ6Q42BWCfc2oJfdAr+Yv+AP9Cb7OJ3H/2JG1HNGz/84klThPVCc=);points=[];labelBackgroundColor=none;rounded=0;html=1;whiteSpace=wrap;" vertex="1" parent="V74mTdHurERI9T-NjPgk-17">
          <mxGeometry width="221" height="949" as="geometry" />
        </mxCell>
        <mxCell id="V74mTdHurERI9T-NjPgk-19" value="&lt;div style=&quot;font-size: 1px&quot;&gt;&lt;p style=&quot;text-align:center;margin-left:0;margin-right:0;margin-top:0px;margin-bottom:0px;text-indent:0;vertical-align:middle;direction:ltr;&quot;&gt;&lt;font style=&quot;font-size:12px;font-family:0;color:#000000;direction:ltr;letter-spacing:0px;line-height:120%;opacity:1&quot;&gt;财务&lt;/font&gt;&lt;/p&gt;&lt;/div&gt;" style="verticalAlign=middle;align=center;overflow=width;vsdxID=19;fillColor=#FFFFFF;gradientColor=none;shape=stencil(nZBLDoAgDERP0z3SIyjew0SURgSD+Lu9kMZoXLhwN9O+tukAlrNpJg1SzDH4QW/URgNYgZTkjA4UkwJUgGXng+6DX1zLfmoymdXo17xh5zmRJ6Q42BWCfc2oJfdAr+Yv+AP9Cb7OJ3H/2JG1HNGz/84klThPVCc=);points=[];labelBackgroundColor=none;rounded=0;html=1;whiteSpace=wrap;" vertex="1" parent="V74mTdHurERI9T-NjPgk-17">
          <mxGeometry width="221" height="30" as="geometry" />
        </mxCell>
        <UserObject label="" tags="背景" id="V74mTdHurERI9T-NjPgk-20">
          <mxCell style="vsdxID=20;fillColor=none;gradientColor=none;points=[];labelBackgroundColor=none;rounded=0;strokeColor=none;html=1;whiteSpace=wrap;fontColor=#FF8000;" vertex="1" parent="1">
            <mxGeometry x="1274" y="88" width="221" height="949" as="geometry" />
          </mxCell>
        </UserObject>
        <mxCell id="V74mTdHurERI9T-NjPgk-21" style="vsdxID=21;fillColor=#FFFFFF;gradientColor=none;fillOpacity=0;shape=stencil(nZBLDoAgDERP0z3SIyjew0SURgSD+Lu9kMZoXLhwN9O+tukAlrNpJg1SzDH4QW/URgNYgZTkjA4UkwJUgGXng+6DX1zLfmoymdXo17xh5zmRJ6Q42BWCfc2oJfdAr+Yv+AP9Cb7OJ3H/2JG1HNGz/84klThPVCc=);points=[];labelBackgroundColor=none;rounded=0;html=1;whiteSpace=wrap;" vertex="1" parent="V74mTdHurERI9T-NjPgk-20">
          <mxGeometry width="221" height="949" as="geometry" />
        </mxCell>
        <mxCell id="V74mTdHurERI9T-NjPgk-22" value="&lt;div style=&quot;font-size: 1px&quot;&gt;&lt;p style=&quot;text-align:center;margin-left:0;margin-right:0;margin-top:0px;margin-bottom:0px;text-indent:0;vertical-align:middle;direction:ltr;&quot;&gt;&lt;font style=&quot;font-size:12px;font-family:0;color:#000000;direction:ltr;letter-spacing:0px;line-height:120%;opacity:1&quot;&gt;加油机接口&lt;/font&gt;&lt;/p&gt;&lt;/div&gt;" style="verticalAlign=middle;align=center;overflow=width;vsdxID=22;fillColor=#FFFFFF;gradientColor=none;shape=stencil(nZBLDoAgDERP0z3SIyjew0SURgSD+Lu9kMZoXLhwN9O+tukAlrNpJg1SzDH4QW/URgNYgZTkjA4UkwJUgGXng+6DX1zLfmoymdXo17xh5zmRJ6Q42BWCfc2oJfdAr+Yv+AP9Cb7OJ3H/2JG1HNGz/84klThPVCc=);points=[];labelBackgroundColor=none;rounded=0;html=1;whiteSpace=wrap;" vertex="1" parent="V74mTdHurERI9T-NjPgk-20">
          <mxGeometry width="221" height="30" as="geometry" />
        </mxCell>
        <mxCell id="V74mTdHurERI9T-NjPgk-68" value="加油设备数据采集系统" style="text;html=1;align=center;verticalAlign=middle;whiteSpace=wrap;rounded=0;" vertex="1" parent="V74mTdHurERI9T-NjPgk-20">
          <mxGeometry x="76" y="112" width="79" height="30" as="geometry" />
        </mxCell>
        <UserObject label="&lt;div style=&quot;font-size: 1px&quot;&gt;&lt;p style=&quot;text-align:center;margin-left:0;margin-right:0;margin-top:0px;margin-bottom:0px;text-indent:0;vertical-align:middle;direction:ltr;&quot;&gt;&lt;font style=&quot;font-size:12px;font-family:0;color:#000000;direction:ltr;letter-spacing:0px;line-height:120%;opacity:1&quot;&gt;制定&lt;br/&gt;&lt;/font&gt;&lt;font style=&quot;font-size:12px;font-family:0;color:#000000;direction:ltr;letter-spacing:0px;line-height:120%;opacity:1&quot;&gt;作业计划&lt;/font&gt;&lt;/p&gt;&lt;/div&gt;" tags="Background" id="V74mTdHurERI9T-NjPgk-23">
          <mxCell style="verticalAlign=middle;align=center;overflow=width;vsdxID=23;fillColor=#FFFFFF;gradientColor=none;shape=stencil(hZJLEoIwDIZP06VMm4ija4R7MFKkI1KmFMXbSw3KozjskvRL8icpw6gp0loy4I01+iafKrMFwzMDUFUhjbK9xTBmGOXayKvRbZWRX6eOdNZdP1yFjvJEGBxOLgv4iyL84yUEl6qawMd9gOI/fGkNlRZDbR4GgAMvpgm8gxXkF/tC6LfFObMq059pgS+F7nydowjwGZjPgn5b3NzlxuJ7YzxZrsqSLj59X564D9H3wPgN);strokeColor=#000000;strokeWidth=2;spacingTop=-3;spacingBottom=-3;spacingLeft=-3;spacingRight=-3;points=[];labelBackgroundColor=none;rounded=0;html=1;whiteSpace=wrap;" vertex="1" parent="1">
            <mxGeometry x="671" y="197" width="85" height="40" as="geometry" />
          </mxCell>
        </UserObject>
        <UserObject label="&lt;div style=&quot;font-size: 1px&quot;&gt;&lt;p style=&quot;text-align:center;margin-left:0;margin-right:0;margin-top:0px;margin-bottom:0px;text-indent:0;vertical-align:middle;direction:ltr;&quot;&gt;&lt;font style=&quot;font-size:12px;font-family:0;color:#000000;direction:ltr;letter-spacing:0px;line-height:120%;opacity:1&quot;&gt;调派车辆&lt;/font&gt;&lt;/p&gt;&lt;/div&gt;" tags="Background" id="V74mTdHurERI9T-NjPgk-24">
          <mxCell style="verticalAlign=middle;align=center;overflow=width;vsdxID=24;fillColor=#FFFFFF;gradientColor=none;shape=stencil(nZBRDoQgDERP03+WHsHFe5iISyOCQdT19kIaIxq//Jtp3zTpAFaTaUYNUkwx+F6v1EYD+AUpyRkdKCYFqACrzgf9C352LfuxyWRWg1/yhT/nRE5IsZWuZtCSK8CPeI0e/hF+jV7AJM4PO7KWCyr390bSiNtEtQM=);strokeColor=#000000;strokeWidth=2;spacingTop=-3;spacingBottom=-3;spacingLeft=-3;spacingRight=-3;points=[];labelBackgroundColor=none;rounded=0;html=1;whiteSpace=wrap;" vertex="1" parent="1">
            <mxGeometry x="671" y="374" width="85" height="40" as="geometry" />
          </mxCell>
        </UserObject>
        <UserObject label="&lt;div style=&quot;font-size: 1px&quot;&gt;&lt;p style=&quot;text-align:center;margin-left:0;margin-right:0;margin-top:0px;margin-bottom:0px;text-indent:0;vertical-align:middle;direction:ltr;&quot;&gt;&lt;font style=&quot;font-size:12px;font-family:0;color:#000000;direction:ltr;letter-spacing:0px;line-height:120%;opacity:1&quot;&gt;车辆运作&lt;/font&gt;&lt;/p&gt;&lt;/div&gt;" tags="Background" id="V74mTdHurERI9T-NjPgk-25">
          <mxCell style="verticalAlign=middle;align=center;overflow=width;vsdxID=25;fillColor=#FFFFFF;gradientColor=none;shape=stencil(nZBRDoQgDERP03+WHsHFe5iISyOCQdT19kIaIxq//Jtp3zTpAFaTaUYNUkwx+F6v1EYD+AUpyRkdKCYFqACrzgf9C352LfuxyWRWg1/yhT/nRE5IsZWuZtCSK8CPeI0e/hF+jV7AJM4PO7KWCyr390bSiNtEtQM=);strokeColor=#000000;strokeWidth=2;spacingTop=-3;spacingBottom=-3;spacingLeft=-3;spacingRight=-3;points=[];labelBackgroundColor=none;rounded=0;html=1;whiteSpace=wrap;" vertex="1" parent="1">
            <mxGeometry x="905" y="374" width="85" height="40" as="geometry" />
          </mxCell>
        </UserObject>
        <UserObject label="&lt;div style=&quot;font-size: 1px&quot;&gt;&lt;p style=&quot;text-align:center;margin-left:0;margin-right:0;margin-top:0px;margin-bottom:0px;text-indent:0;vertical-align:middle;direction:ltr;&quot;&gt;&lt;font style=&quot;font-size:12px;font-family:0;color:#000000;direction:ltr;letter-spacing:0px;line-height:120%;opacity:1&quot;&gt;手机app&lt;br/&gt;&lt;/font&gt;&lt;font style=&quot;font-size:12px;font-family:0;color:#000000;direction:ltr;letter-spacing:0px;line-height:120%;opacity:1&quot;&gt;出勤打卡&lt;/font&gt;&lt;/p&gt;&lt;/div&gt;" tags="Background" id="V74mTdHurERI9T-NjPgk-26">
          <mxCell style="verticalAlign=middle;align=center;overflow=width;vsdxID=26;fillColor=#FFFF99;gradientColor=none;shape=stencil(hZJLEoIwDIZP06VMSQZ0j3gPRop0rJQpD/H2UoMCLQ67JP2S/EnKMGnKrBYMeNMafRdPmbclwzMDkFUpjGxHi2HKMCm0ETejuyonv84saa2H7m2FgfLCOIiPNgv4iyL8410IVrJawCcMEP/D185Q6XCqzaMgiic+XCbwATaQX+wLod8W18ymTH8mB3eFHnydswjwGVjPgn5b3N3lzuJHYz5ZIZWiiy/f3ROPIfoemL4B);strokeColor=#000000;strokeWidth=2;spacingTop=-3;spacingBottom=-3;spacingLeft=-3;spacingRight=-3;points=[];labelBackgroundColor=none;rounded=0;html=1;whiteSpace=wrap;" vertex="1" parent="1">
            <mxGeometry x="897" y="197" width="100" height="50" as="geometry" />
          </mxCell>
        </UserObject>
        <UserObject label="&lt;div style=&quot;font-size: 1px&quot;&gt;&lt;p style=&quot;text-align:center;margin-left:0;margin-right:0;margin-top:0px;margin-bottom:0px;text-indent:0;vertical-align:middle;direction:ltr;&quot;&gt;&lt;font style=&quot;font-size:12px;font-family:0;color:#000000;direction:ltr;letter-spacing:0px;line-height:120%;opacity:1&quot;&gt;上车作业&lt;/font&gt;&lt;/p&gt;&lt;/div&gt;" tags="Background" id="V74mTdHurERI9T-NjPgk-27">
          <mxCell style="verticalAlign=middle;align=center;overflow=width;vsdxID=27;fillColor=#FFFFFF;gradientColor=none;shape=stencil(nZBRDoQgDERP03+WHsHFe5iISyOCQdT19kIaIxq//Jtp3zTpAFaTaUYNUkwx+F6v1EYD+AUpyRkdKCYFqACrzgf9C352LfuxyWRWg1/yhT/nRE5IsZWuZtCSK8CPeI0e/hF+jV7AJM4PO7KWCyr390bSiNtEtQM=);strokeColor=#000000;strokeWidth=2;spacingTop=-3;spacingBottom=-3;spacingLeft=-3;spacingRight=-3;points=[];labelBackgroundColor=none;rounded=0;html=1;whiteSpace=wrap;" vertex="1" parent="1">
            <mxGeometry x="905" y="286" width="85" height="40" as="geometry" />
          </mxCell>
        </UserObject>
        <UserObject label="&lt;div style=&quot;font-size: 1px&quot;&gt;&lt;p style=&quot;text-align:center;margin-left:0;margin-right:0;margin-top:0px;margin-bottom:0px;text-indent:0;vertical-align:middle;direction:ltr;&quot;&gt;&lt;font style=&quot;font-size:12px;font-family:0;color:#000000;direction:ltr;letter-spacing:0px;line-height:120%;opacity:1&quot;&gt;过磅打卡数据&lt;/font&gt;&lt;/p&gt;&lt;/div&gt;" tags="Background" id="V74mTdHurERI9T-NjPgk-28">
          <mxCell style="verticalAlign=middle;align=center;overflow=width;vsdxID=28;fillColor=#FFFF99;gradientColor=none;shape=stencil(nZHBDsIgEES/hqtZltR6r/U/mkAtEaFSqvXvLS5Gg6kabzO7byeEYaIauqZXDGEI3h3URcvQMbFliNp2yuswKyZqJqrWebX3brSSfN9EMqqjO8eEie4gXiBcyW3KVXEf7Ig12i6ysAxy+BvNX3AaGxlpTuuySHTya0w4TEiT4pGHPwViFsj5W+KXwE9/lLOzeBbRamOox9d9Xtw8otJFfQM=);strokeColor=#000000;strokeWidth=2;spacingTop=-3;spacingBottom=-3;spacingLeft=-3;spacingRight=-3;points=[];labelBackgroundColor=none;rounded=0;html=1;whiteSpace=wrap;" vertex="1" parent="1">
            <mxGeometry x="897" y="475" width="100" height="48" as="geometry" />
          </mxCell>
        </UserObject>
        <UserObject label="&lt;div style=&quot;font-size: 1px&quot;&gt;&lt;p style=&quot;text-align:center;margin-left:0;margin-right:0;margin-top:0px;margin-bottom:0px;text-indent:0;vertical-align:middle;direction:ltr;&quot;&gt;&lt;font style=&quot;font-size:12px;font-family:0;color:#000000;direction:ltr;letter-spacing:0px;line-height:120%;opacity:1&quot;&gt;作业量确认&lt;/font&gt;&lt;/p&gt;&lt;/div&gt;" tags="Background" id="V74mTdHurERI9T-NjPgk-29">
          <mxCell style="verticalAlign=middle;align=center;overflow=width;vsdxID=29;fillColor=#FFFFFF;gradientColor=none;shape=stencil(nZBRDoQgDERP03+WHsHFe5iISyOCQdT19kIaIxq//Jtp3zTpAFaTaUYNUkwx+F6v1EYD+AUpyRkdKCYFqACrzgf9C352LfuxyWRWg1/yhT/nRE5IsZWuZtCSK8CPeI0e/hF+jV7AJM4PO7KWCyr390bSiNtEtQM=);strokeColor=#000000;strokeWidth=2;spacingTop=-3;spacingBottom=-3;spacingLeft=-3;spacingRight=-3;points=[];labelBackgroundColor=none;rounded=0;html=1;whiteSpace=wrap;" vertex="1" parent="1">
            <mxGeometry x="675" y="479" width="85" height="40" as="geometry" />
          </mxCell>
        </UserObject>
        <UserObject label="&lt;div style=&quot;font-size: 1px&quot;&gt;&lt;p style=&quot;text-align:center;margin-left:0;margin-right:0;margin-top:0px;margin-bottom:0px;text-indent:0;vertical-align:middle;direction:ltr;&quot;&gt;&lt;font style=&quot;font-size:12px;font-family:0;color:#000000;direction:ltr;letter-spacing:0px;line-height:120%;opacity:1&quot;&gt;计划单&lt;br/&gt;&lt;/font&gt;&lt;font style=&quot;font-size:12px;font-family:0;color:#000000;direction:ltr;letter-spacing:0px;line-height:120%;opacity:1&quot;&gt;完成情况审核&lt;/font&gt;&lt;/p&gt;&lt;/div&gt;" tags="Background" id="V74mTdHurERI9T-NjPgk-30">
          <mxCell style="verticalAlign=middle;align=center;overflow=width;vsdxID=30;fillColor=#FFFFFF;gradientColor=none;shape=stencil(nZBRDoQgDERP03+WHsHFe5iISyOCQdT19kIaIxq//Jtp3zTpAFaTaUYNUkwx+F6v1EYD+AUpyRkdKCYFqACrzgf9C352LfuxyWRWg1/yhT/nRE5IsZWuZtCSK8CPeI0e/hF+jV7AJM4PO7KWCyr390bSiNtEtQM=);strokeColor=#000000;strokeWidth=2;spacingTop=-3;spacingBottom=-3;spacingLeft=-3;spacingRight=-3;points=[];labelBackgroundColor=none;rounded=0;html=1;whiteSpace=wrap;" vertex="1" parent="1">
            <mxGeometry x="663" y="610" width="108" height="40" as="geometry" />
          </mxCell>
        </UserObject>
        <UserObject label="&lt;div style=&quot;font-size: 1px&quot;&gt;&lt;p style=&quot;text-align:center;margin-left:0;margin-right:0;margin-top:0px;margin-bottom:0px;text-indent:0;vertical-align:middle;direction:ltr;&quot;&gt;&lt;font style=&quot;font-size:12px;font-family:0;color:#000000;direction:ltr;letter-spacing:0px;line-height:120%;opacity:1&quot;&gt;车辆管理&lt;/font&gt;&lt;/p&gt;&lt;/div&gt;" tags="Background" id="V74mTdHurERI9T-NjPgk-31">
          <mxCell style="verticalAlign=middle;align=center;overflow=width;vsdxID=31;fillColor=#FFFFFF;gradientColor=none;shape=stencil(nZBRDoQgDERP03+WHsHFe5iISyOCQdT19kIaIxq//Jtp3zTpAFaTaUYNUkwx+F6v1EYD+AUpyRkdKCYFqACrzgf9C352LfuxyWRWg1/yhT/nRE5IsZWuZtCSK8CPeI0e/hF+jV7AJM4PO7KWCyr390bSiNtEtQM=);strokeColor=#000000;strokeWidth=2;spacingTop=-3;spacingBottom=-3;spacingLeft=-3;spacingRight=-3;points=[];labelBackgroundColor=none;rounded=0;html=1;whiteSpace=wrap;" vertex="1" parent="1">
            <mxGeometry x="242" y="197" width="85" height="40" as="geometry" />
          </mxCell>
        </UserObject>
        <UserObject label="&lt;div style=&quot;font-size: 1px&quot;&gt;&lt;p style=&quot;text-align:center;margin-left:0;margin-right:0;margin-top:0px;margin-bottom:0px;text-indent:0;vertical-align:middle;direction:ltr;&quot;&gt;&lt;font style=&quot;font-size:12px;font-family:0;color:#000000;direction:ltr;letter-spacing:0px;line-height:120%;opacity:1&quot;&gt;车辆维修管理&lt;/font&gt;&lt;/p&gt;&lt;/div&gt;" tags="Background" id="V74mTdHurERI9T-NjPgk-32">
          <mxCell style="verticalAlign=middle;align=center;overflow=width;vsdxID=32;fillColor=#FFFFFF;gradientColor=none;shape=stencil(nZBRDoQgDERP03+WHsHFe5iISyOCQdT19kIaIxq//Jtp3zTpAFaTaUYNUkwx+F6v1EYD+AUpyRkdKCYFqACrzgf9C352LfuxyWRWg1/yhT/nRE5IsZWuZtCSK8CPeI0e/hF+jV7AJM4PO7KWCyr390bSiNtEtQM=);strokeColor=#000000;strokeWidth=2;spacingTop=-3;spacingBottom=-3;spacingLeft=-3;spacingRight=-3;points=[];labelBackgroundColor=none;rounded=0;html=1;whiteSpace=wrap;" vertex="1" parent="1">
            <mxGeometry x="232" y="297" width="104" height="45" as="geometry" />
          </mxCell>
        </UserObject>
        <UserObject label="&lt;div style=&quot;font-size: 1px&quot;&gt;&lt;p style=&quot;text-align:center;margin-left:0;margin-right:0;margin-top:0px;margin-bottom:0px;text-indent:0;vertical-align:middle;direction:ltr;&quot;&gt;&lt;font style=&quot;font-size:12px;font-family:0;color:#000000;direction:ltr;letter-spacing:0px;line-height:120%;opacity:1&quot;&gt;司机管理&lt;/font&gt;&lt;/p&gt;&lt;/div&gt;" tags="Background" id="V74mTdHurERI9T-NjPgk-33">
          <mxCell style="verticalAlign=middle;align=center;overflow=width;vsdxID=33;fillColor=#FFFFFF;gradientColor=none;shape=stencil(nZBRDoQgDERP03+WHsHFe5iISyOCQdT19kIaIxq//Jtp3zTpAFaTaUYNUkwx+F6v1EYD+AUpyRkdKCYFqACrzgf9C352LfuxyWRWg1/yhT/nRE5IsZWuZtCSK8CPeI0e/hF+jV7AJM4PO7KWCyr390bSiNtEtQM=);strokeColor=#000000;strokeWidth=2;spacingTop=-3;spacingBottom=-3;spacingLeft=-3;spacingRight=-3;points=[];labelBackgroundColor=none;rounded=0;html=1;whiteSpace=wrap;" vertex="1" parent="1">
            <mxGeometry x="456" y="197" width="85" height="40" as="geometry" />
          </mxCell>
        </UserObject>
        <UserObject label="&lt;div style=&quot;font-size: 1px&quot;&gt;&lt;p style=&quot;text-align:center;margin-left:0;margin-right:0;margin-top:0px;margin-bottom:0px;text-indent:0;vertical-align:middle;direction:ltr;&quot;&gt;&lt;font style=&quot;font-size:12px;font-family:0;color:#000000;direction:ltr;letter-spacing:0px;line-height:120%;opacity:1&quot;&gt;车辆事故管理&lt;/font&gt;&lt;/p&gt;&lt;/div&gt;" tags="Background" id="V74mTdHurERI9T-NjPgk-34">
          <mxCell style="verticalAlign=middle;align=center;overflow=width;vsdxID=34;fillColor=#FFFFFF;gradientColor=none;shape=stencil(nZBRDoQgDERP03+WHsHFe5iISyOCQdT19kIaIxq//Jtp3zTpAFaTaUYNUkwx+F6v1EYD+AUpyRkdKCYFqACrzgf9C352LfuxyWRWg1/yhT/nRE5IsZWuZtCSK8CPeI0e/hF+jV7AJM4PO7KWCyr390bSiNtEtQM=);strokeColor=#000000;strokeWidth=2;spacingTop=-3;spacingBottom=-3;spacingLeft=-3;spacingRight=-3;points=[];labelBackgroundColor=none;rounded=0;html=1;whiteSpace=wrap;" vertex="1" parent="1">
            <mxGeometry x="232" y="379" width="104" height="45" as="geometry" />
          </mxCell>
        </UserObject>
        <UserObject label="&lt;div style=&quot;font-size: 1px&quot;&gt;&lt;p style=&quot;text-align:center;margin-left:0;margin-right:0;margin-top:0px;margin-bottom:0px;text-indent:0;vertical-align:middle;direction:ltr;&quot;&gt;&lt;font style=&quot;font-size:12px;font-family:0;color:#000000;direction:ltr;letter-spacing:0px;line-height:120%;opacity:1&quot;&gt;车辆安全奖惩&lt;/font&gt;&lt;/p&gt;&lt;/div&gt;" tags="Background" id="V74mTdHurERI9T-NjPgk-35">
          <mxCell style="verticalAlign=middle;align=center;overflow=width;vsdxID=35;fillColor=#FFFFFF;gradientColor=none;shape=stencil(nZBRDoQgDERP03+WHsHFe5iISyOCQdT19kIaIxq//Jtp3zTpAFaTaUYNUkwx+F6v1EYD+AUpyRkdKCYFqACrzgf9C352LfuxyWRWg1/yhT/nRE5IsZWuZtCSK8CPeI0e/hF+jV7AJM4PO7KWCyr390bSiNtEtQM=);strokeColor=#000000;strokeWidth=2;spacingTop=-3;spacingBottom=-3;spacingLeft=-3;spacingRight=-3;points=[];labelBackgroundColor=none;rounded=0;html=1;whiteSpace=wrap;" vertex="1" parent="1">
            <mxGeometry x="232" y="460" width="104" height="45" as="geometry" />
          </mxCell>
        </UserObject>
        <UserObject label="&lt;div style=&quot;font-size: 1px&quot;&gt;&lt;p style=&quot;text-align:center;margin-left:0;margin-right:0;margin-top:0px;margin-bottom:0px;text-indent:0;vertical-align:middle;direction:ltr;&quot;&gt;&lt;font style=&quot;font-size:12px;font-family:0;color:#000000;direction:ltr;letter-spacing:0px;line-height:120%;opacity:1&quot;&gt;车辆加油管理&lt;/font&gt;&lt;/p&gt;&lt;/div&gt;" tags="Background" id="V74mTdHurERI9T-NjPgk-36">
          <mxCell style="verticalAlign=middle;align=center;overflow=width;vsdxID=36;fillColor=#FFFFFF;gradientColor=none;shape=stencil(nZBRDoQgDERP03+WHsHFe5iISyOCQdT19kIaIxq//Jtp3zTpAFaTaUYNUkwx+F6v1EYD+AUpyRkdKCYFqACrzgf9C352LfuxyWRWg1/yhT/nRE5IsZWuZtCSK8CPeI0e/hF+jV7AJM4PO7KWCyr390bSiNtEtQM=);strokeColor=#000000;strokeWidth=2;spacingTop=-3;spacingBottom=-3;spacingLeft=-3;spacingRight=-3;points=[];labelBackgroundColor=none;rounded=0;html=1;whiteSpace=wrap;" vertex="1" parent="1">
            <mxGeometry x="232" y="565" width="104" height="45" as="geometry" />
          </mxCell>
        </UserObject>
        <UserObject label="&lt;div style=&quot;font-size: 1px&quot;&gt;&lt;p style=&quot;text-align:center;margin-left:0;margin-right:0;margin-top:0px;margin-bottom:0px;text-indent:0;vertical-align:middle;direction:ltr;&quot;&gt;&lt;font style=&quot;font-size:12px;font-family:0;color:#000000;direction:ltr;letter-spacing:0px;line-height:120%;opacity:1&quot;&gt;司机考勤监管&lt;/font&gt;&lt;/p&gt;&lt;/div&gt;" tags="Background" id="V74mTdHurERI9T-NjPgk-37">
          <mxCell style="verticalAlign=middle;align=center;overflow=width;vsdxID=37;fillColor=#FFFFFF;gradientColor=none;shape=stencil(nZBRDoQgDERP03+WHsHFe5iISyOCQdT19kIaIxq//Jtp3zTpAFaTaUYNUkwx+F6v1EYD+AUpyRkdKCYFqACrzgf9C352LfuxyWRWg1/yhT/nRE5IsZWuZtCSK8CPeI0e/hF+jV7AJM4PO7KWCyr390bSiNtEtQM=);strokeColor=#000000;strokeWidth=2;spacingTop=-3;spacingBottom=-3;spacingLeft=-3;spacingRight=-3;points=[];labelBackgroundColor=none;rounded=0;html=1;whiteSpace=wrap;" vertex="1" parent="1">
            <mxGeometry x="447" y="296" width="102" height="46" as="geometry" />
          </mxCell>
        </UserObject>
        <UserObject label="&lt;div style=&quot;font-size: 1px&quot;&gt;&lt;p style=&quot;text-align:center;margin-left:0;margin-right:0;margin-top:0px;margin-bottom:0px;text-indent:0;vertical-align:middle;direction:ltr;&quot;&gt;&lt;font style=&quot;font-size:12px;font-family:0;color:#000000;direction:ltr;letter-spacing:0px;line-height:120%;opacity:1&quot;&gt;请假管理&lt;/font&gt;&lt;/p&gt;&lt;/div&gt;" tags="Background" id="V74mTdHurERI9T-NjPgk-38">
          <mxCell style="verticalAlign=middle;align=center;overflow=width;vsdxID=38;fillColor=#FFFFFF;gradientColor=none;shape=stencil(nZBRDoQgDERP03+WHsHFe5iISyOCQdT19kIaIxq//Jtp3zTpAFaTaUYNUkwx+F6v1EYD+AUpyRkdKCYFqACrzgf9C352LfuxyWRWg1/yhT/nRE5IsZWuZtCSK8CPeI0e/hF+jV7AJM4PO7KWCyr390bSiNtEtQM=);strokeColor=#000000;strokeWidth=2;spacingTop=-3;spacingBottom=-3;spacingLeft=-3;spacingRight=-3;points=[];labelBackgroundColor=none;rounded=0;html=1;whiteSpace=wrap;" vertex="1" parent="1">
            <mxGeometry x="456" y="379" width="85" height="40" as="geometry" />
          </mxCell>
        </UserObject>
        <UserObject label="&lt;div style=&quot;font-size: 1px&quot;&gt;&lt;p style=&quot;text-align:center;margin-left:0;margin-right:0;margin-top:0px;margin-bottom:0px;text-indent:0;vertical-align:middle;direction:ltr;&quot;&gt;&lt;font style=&quot;font-size:12px;font-family:0;color:#000000;direction:ltr;letter-spacing:0px;line-height:120%;opacity:1&quot;&gt;司机奖惩&lt;/font&gt;&lt;/p&gt;&lt;/div&gt;" tags="Background" id="V74mTdHurERI9T-NjPgk-39">
          <mxCell style="verticalAlign=middle;align=center;overflow=width;vsdxID=39;fillColor=#FFFFFF;gradientColor=none;shape=stencil(nZBRDoQgDERP03+WHsHFe5iISyOCQdT19kIaIxq//Jtp3zTpAFaTaUYNUkwx+F6v1EYD+AUpyRkdKCYFqACrzgf9C352LfuxyWRWg1/yhT/nRE5IsZWuZtCSK8CPeI0e/hF+jV7AJM4PO7KWCyr390bSiNtEtQM=);strokeColor=#000000;strokeWidth=2;spacingTop=-3;spacingBottom=-3;spacingLeft=-3;spacingRight=-3;points=[];labelBackgroundColor=none;rounded=0;html=1;whiteSpace=wrap;" vertex="1" parent="1">
            <mxGeometry x="456" y="454" width="85" height="40" as="geometry" />
          </mxCell>
        </UserObject>
        <UserObject label="&lt;div style=&quot;font-size: 1px&quot;&gt;&lt;p style=&quot;text-align:center;margin-left:0;margin-right:0;margin-top:0px;margin-bottom:0px;text-indent:0;vertical-align:middle;direction:ltr;&quot;&gt;&lt;font style=&quot;font-size:12px;font-family:0;color:#000000;direction:ltr;letter-spacing:0px;line-height:120%;opacity:1&quot;&gt;加油&lt;br/&gt;&lt;/font&gt;&lt;font style=&quot;font-size:12px;font-family:0;color:#000000;direction:ltr;letter-spacing:0px;line-height:120%;opacity:1&quot;&gt;数据接口&lt;/font&gt;&lt;/p&gt;&lt;/div&gt;" tags="Background" id="V74mTdHurERI9T-NjPgk-40">
          <mxCell style="verticalAlign=middle;align=center;overflow=width;vsdxID=40;fillColor=#FFFF99;gradientColor=none;shape=stencil(fVFbDsIgEDwNnxpgYz1ArfdoLBUiQkMf1tsL2Wopof7t7swwyyyBspd1Jwin/eDsQ7xUM0gCF8K5MlI4NfiKQEWgbK0Td2dH02Df1YEZqqedwgsz6k40SDh9Y8so9lfk3kaHZIbwgRXH4rwo2FZCZ54hLbMvBRJXiOEdU5YxTSxZxnLda8c0+atWJsrlp84HsyX/D9EXa/qt0hqPF+PptfwILw3VBw==);strokeColor=#000000;strokeWidth=2;spacingTop=-3;spacingBottom=-3;spacingLeft=-3;spacingRight=-3;points=[];labelBackgroundColor=none;rounded=0;html=1;whiteSpace=wrap;" vertex="1" parent="1">
            <mxGeometry x="1346" y="240" width="88" height="85" as="geometry" />
          </mxCell>
        </UserObject>
        <UserObject label="&lt;div style=&quot;font-size: 1px&quot;&gt;&lt;p style=&quot;text-align:center;margin-left:0;margin-right:0;margin-top:0px;margin-bottom:0px;text-indent:0;vertical-align:middle;direction:ltr;&quot;&gt;&lt;font style=&quot;font-size:12px;font-family:0;color:#000000;direction:ltr;letter-spacing:0px;line-height:120%;opacity:1&quot;&gt;加油数据&lt;br/&gt;&lt;/font&gt;&lt;font style=&quot;font-size:12px;font-family:0;color:#000000;direction:ltr;letter-spacing:0px;line-height:120%;opacity:1&quot;&gt;接收处理&lt;/font&gt;&lt;/p&gt;&lt;/div&gt;" tags="Background" id="V74mTdHurERI9T-NjPgk-41">
          <mxCell style="verticalAlign=middle;align=center;overflow=width;vsdxID=41;fillColor=#FFFFFF;gradientColor=none;shape=stencil(nZBRDoQgDERP03+WHsHFe5iISyOCQdT19kIaIxq//Jtp3zTpAFaTaUYNUkwx+F6v1EYD+AUpyRkdKCYFqACrzgf9C352LfuxyWRWg1/yhT/nRE5IsZWuZtCSK8CPeI0e/hF+jV7AJM4PO7KWCyr390bSiNtEtQM=);strokeColor=#000000;strokeWidth=2;spacingTop=-3;spacingBottom=-3;spacingLeft=-3;spacingRight=-3;points=[];labelBackgroundColor=none;rounded=0;html=1;whiteSpace=wrap;" vertex="1" parent="1">
            <mxGeometry x="232" y="676" width="104" height="45" as="geometry" />
          </mxCell>
        </UserObject>
        <UserObject label="" tags="Background" id="V74mTdHurERI9T-NjPgk-42">
          <mxCell style="vsdxID=42;fillColor=none;gradientColor=none;image;aspect=fixed;image=data:image/png,iVBORw0KGgoAAAANSUhEUgAAACgAAABMCAYAAAAfm/UhAAAAAXNSR0IArs4c6QAAApFJREFUaEPtmr9rU3EUxc8NWLBGFJR2LHEqZmhfUhVqEyiidjD1ByZDizaa6qKTRUfBURQXFaHFNIESRVFpWrCokGJCQU3y9B+w6mYasIVmcvjKS2lI0kiad18y3bc93j3nnnw4kOUSqp4e19GADbazIBoEVGf19+a8028olVCkXn/NpF6W76DNF5drwKeIpgHsa06IbbvmSanL2WxqzlAUA2p93mEoNbtti1YMEp3W0x/jGwHdnnUAu1qxt4EdBT2TtJPW570IpaINCFs2qkBB0lyeWRCGG90a8J9Be/tORKLP0NGxv648l8vXndkyoBAnze35A2Bvo+rQeBC2HW2YejIJ58FuOJ3d/7VYWckjsZhqdIUxv2oEVGaUrdJIQC7pEsH+/iNcL0v1S0ufin6lgKMjAUzcuG7pErNm9x88RCy28Y8nAc1QFIJmqJVrhKAQ5BLg6qWDQpBLgKuXDgpBLgGuXjooBLkEuHrpoBDkEuDqpYNCkEuAq5cOCkEuAa5eOigEuQS4eumgEOQS4Oqlg0KQS4Crlw4KQS4Brl46KAS5BLh66WDTCI6O+LneluhnYi+2nqVY4twEE8tut3ynhnD4kKsY8fOXLObmFyyJawRcBbCH4zYeuoChk8cqLN4ufMDT8AzH1tCuGReYcSjlM+u0227HdPhRTXnw0jWsFwpmraGAeep1e8cIKmLWxeHowr27d2rKb966jeUfv8xaw7gGtuTINhJ+DLu98kbXIGcQZDx/9UyyzZIz5RPHB3H1ylhFlsmpKN69T5jPRzivp5Ovqg+9wwDqX8zWWHvA0QVN6yl+0fVv+L7802y4NRBCRjjDoBRw063XPeAnRedaeyqPnIJaJKI3ejr5vPyX/QOHMUfxXYBlgQAAAABJRU5ErkJggg==;strokeColor=none;strokeWidth=0;points=[];labelBackgroundColor=none;rounded=0;html=1;whiteSpace=wrap;" vertex="1" parent="1">
            <mxGeometry x="843" y="184" width="40" height="76" as="geometry" />
          </mxCell>
        </UserObject>
        <UserObject label="&lt;div style=&quot;font-size: 1px&quot;&gt;&lt;p style=&quot;text-align:center;margin-left:0;margin-right:0;margin-top:0px;margin-bottom:0px;text-indent:0;vertical-align:middle;direction:ltr;&quot;&gt;&lt;font style=&quot;font-size:12px;font-family:0;color:#000000;direction:ltr;letter-spacing:0px;line-height:120%;opacity:1&quot;&gt;作业量及&lt;br/&gt;&lt;/font&gt;&lt;font style=&quot;font-size:12px;font-family:0;color:#000000;direction:ltr;letter-spacing:0px;line-height:120%;opacity:1&quot;&gt;绩效数据&lt;/font&gt;&lt;/p&gt;&lt;/div&gt;" tags="Background" id="V74mTdHurERI9T-NjPgk-43">
          <mxCell style="verticalAlign=middle;align=center;overflow=width;vsdxID=43;fillColor=#FFFFFF;gradientColor=none;shape=stencil(nZHBDoIwEES/Zq9NuxXFM+J/NGmRRqRYiuLfS12MpglqvO3Mvp00HZBFX6vOAPI+eHc0V6tDDXIHiLatjbdhmkCWIIvKeXPwbmg16U5FMk4nd4kJI93xeIH8RirPmXgYe2Ib2y6yfBkU/G80fcF5UDrSgtabbKZnvV4x3JI1IlnZMxB/SsQkUQjBksQvgZ8+KWWn4dVEZZuGinzfp81NFrUuyzs=);strokeColor=#000000;strokeWidth=2;spacingTop=-3;spacingBottom=-3;spacingLeft=-3;spacingRight=-3;points=[];labelBackgroundColor=none;rounded=0;html=1;whiteSpace=wrap;" vertex="1" parent="1">
            <mxGeometry x="1121" y="187" width="100" height="70" as="geometry" />
          </mxCell>
        </UserObject>
        <UserObject label="&lt;div style=&quot;font-size: 1px&quot;&gt;&lt;p style=&quot;text-align:center;margin-left:0;margin-right:0;margin-top:0px;margin-bottom:0px;text-indent:0;vertical-align:middle;direction:ltr;&quot;&gt;&lt;font style=&quot;font-size:12px;font-family:0;color:#000000;direction:ltr;letter-spacing:0px;line-height:120%;opacity:1&quot;&gt;司机工资生成&lt;/font&gt;&lt;/p&gt;&lt;/div&gt;" tags="Background" id="V74mTdHurERI9T-NjPgk-44">
          <mxCell style="verticalAlign=middle;align=center;overflow=width;vsdxID=44;fillColor=#FFFFFF;gradientColor=none;shape=stencil(nZHBDoIwEES/Zq9NuxXFM+J/NGmRRqRYiuLfS12MpglqvO3Mvp00HZBFX6vOAPI+eHc0V6tDDXIHiLatjbdhmkCWIIvKeXPwbmg16U5FMk4nd4kJI93xeIH8RirPmXgYe2Ib2y6yfBkU/G80fcF5UDrSgtabbKZnvV4x3JI1IlnZMxB/SsQkUQjBksQvgZ8+KWWn4dVEZZuGinzfp81NFrUuyzs=);strokeColor=#000000;strokeWidth=2;spacingTop=-3;spacingBottom=-3;spacingLeft=-3;spacingRight=-3;points=[];labelBackgroundColor=none;rounded=0;html=1;whiteSpace=wrap;" vertex="1" parent="1">
            <mxGeometry x="1121" y="444" width="100" height="70" as="geometry" />
          </mxCell>
        </UserObject>
        <UserObject label="&lt;div style=&quot;font-size: 1px&quot;&gt;&lt;p style=&quot;text-align:center;margin-left:0;margin-right:0;margin-top:0px;margin-bottom:0px;text-indent:0;vertical-align:middle;direction:ltr;&quot;&gt;&lt;font style=&quot;font-size:12px;font-family:0;color:#000000;direction:ltr;letter-spacing:0px;line-height:120%;opacity:1&quot;&gt;司机工资生成&lt;/font&gt;&lt;/p&gt;&lt;/div&gt;" tags="Background" id="V74mTdHurERI9T-NjPgk-45">
          <mxCell style="verticalAlign=middle;align=center;overflow=width;vsdxID=45;fillColor=#FFFFFF;gradientColor=none;shape=stencil(nZBRDoQgDERP03+WHsHFe5iISyOCQdT19kIaIxq//Jtp3zTpAFaTaUYNUkwx+F6v1EYD+AUpyRkdKCYFqACrzgf9C352LfuxyWRWg1/yhT/nRE5IsZWuZtCSK8CPeI0e/hF+jV7AJM4PO7KWCyr390bSiNtEtQM=);strokeColor=#000000;strokeWidth=2;spacingTop=-3;spacingBottom=-3;spacingLeft=-3;spacingRight=-3;points=[];labelBackgroundColor=none;rounded=0;html=1;whiteSpace=wrap;" vertex="1" parent="1">
            <mxGeometry x="1121" y="326" width="100" height="43" as="geometry" />
          </mxCell>
        </UserObject>
        <UserObject label="&lt;div style=&quot;font-size: 1px&quot;&gt;&lt;p style=&quot;text-align:center;margin-left:0;margin-right:0;margin-top:0px;margin-bottom:0px;text-indent:0;vertical-align:middle;direction:ltr;&quot;&gt;&lt;font style=&quot;font-size:12px;font-family:0;color:#000000;direction:ltr;letter-spacing:0px;line-height:120%;opacity:1&quot;&gt;结费对账单&lt;/font&gt;&lt;/p&gt;&lt;/div&gt;" tags="Background" id="V74mTdHurERI9T-NjPgk-46">
          <mxCell style="verticalAlign=middle;align=center;overflow=width;vsdxID=46;fillColor=#FFFFFF;gradientColor=none;shape=stencil(nZHBDsIgEES/hqtZltR6r/U/mkAtEaFSqvXvLS5Gg6kabzO7byeEYaIauqZXDGEI3h3URcvQMbFliNp2yuswKyZqJqrWebX3brSSfN9EMqqjO8eEie4gXiBcyW3KVXEf7Ig12i6ysAxy+BvNX3AaGxlpTuuySHTya0w4TEiT4pGHPwViFsj5W+KXwE9/lLOzeBbRamOox9d9Xtw8otJFfQM=);strokeColor=#000000;strokeWidth=2;spacingTop=-3;spacingBottom=-3;spacingLeft=-3;spacingRight=-3;points=[];labelBackgroundColor=none;rounded=0;html=1;whiteSpace=wrap;" vertex="1" parent="1">
            <mxGeometry x="1121" y="548" width="100" height="55" as="geometry" />
          </mxCell>
        </UserObject>
        <UserObject label="&lt;div style=&quot;font-size: 1px&quot;&gt;&lt;p style=&quot;text-align:center;margin-left:0;margin-right:0;margin-top:0px;margin-bottom:0px;text-indent:0;vertical-align:middle;direction:ltr;&quot;&gt;&lt;font style=&quot;font-size:12px;font-family:0;color:#000000;direction:ltr;letter-spacing:0px;line-height:120%;opacity:1&quot;&gt;装卸/过磅/外协费用对账单&lt;/font&gt;&lt;/p&gt;&lt;/div&gt;" tags="Background" id="V74mTdHurERI9T-NjPgk-47">
          <mxCell style="verticalAlign=middle;align=center;overflow=width;vsdxID=47;fillColor=#FFFFFF;gradientColor=none;shape=stencil(nZHBDsIgEES/hqtZltR6r/U/mkAtEaFSqvXvLS5Gg6kabzO7byeEYaIauqZXDGEI3h3URcvQMbFliNp2yuswKyZqJqrWebX3brSSfN9EMqqjO8eEie4gXiBcyW3KVXEf7Ig12i6ysAxy+BvNX3AaGxlpTuuySHTya0w4TEiT4pGHPwViFsj5W+KXwE9/lLOzeBbRamOox9d9Xtw8otJFfQM=);strokeColor=#000000;strokeWidth=2;spacingTop=-3;spacingBottom=-3;spacingLeft=-3;spacingRight=-3;points=[];labelBackgroundColor=none;rounded=0;html=1;whiteSpace=wrap;" vertex="1" parent="1">
            <mxGeometry x="1121" y="657" width="100" height="55" as="geometry" />
          </mxCell>
        </UserObject>
        <UserObject label="&lt;div style=&quot;font-size: 1px&quot;&gt;&lt;p style=&quot;text-align:center;margin-left:0;margin-right:0;margin-top:0px;margin-bottom:0px;text-indent:0;vertical-align:middle;direction:ltr;&quot;&gt;&lt;font style=&quot;font-size:12px;font-family:0;color:#000000;direction:ltr;letter-spacing:0px;line-height:120%;opacity:1&quot;&gt;其它业务数据&lt;br/&gt;&lt;/font&gt;&lt;font style=&quot;font-size:12px;font-family:0;color:#000000;direction:ltr;letter-spacing:0px;line-height:120%;opacity:1&quot;&gt;统计查询&lt;/font&gt;&lt;/p&gt;&lt;/div&gt;" tags="Background" id="V74mTdHurERI9T-NjPgk-48">
          <mxCell style="verticalAlign=middle;align=center;overflow=width;vsdxID=48;fillColor=#FFFFFF;gradientColor=none;shape=stencil(lVLREoIgEPwaHmPgUNNn0/9wRkwmE0Mt+/ukszSniXy7XfZ2WFgi4rbMGkmAtZ3RJ3lTeVcScSAAqi6lUd04EZEQERfayKPRfZ0jbjKrtNNZX63DgHvMbgC7I+KM8uDJpCi+9FluxRzPwZ/kExaMehFSAyDlvxzhP8v9ynI3L7w9OXOZVqpehJr1iMOIht6GOwQR9fnvWC7L9UvxL7Fclp+hHD+1STwOcyEKVVXYp+X5ukAjheUTyQM=);strokeColor=#000000;strokeWidth=2;spacingTop=-3;spacingBottom=-3;spacingLeft=-3;spacingRight=-3;points=[];labelBackgroundColor=none;rounded=0;html=1;whiteSpace=wrap;" vertex="1" parent="1">
            <mxGeometry x="1121" y="766" width="100" height="82" as="geometry" />
          </mxCell>
        </UserObject>
        <UserObject label="&lt;div style=&quot;font-size: 1px&quot;&gt;&lt;p style=&quot;text-align:center;margin-left:0;margin-right:0;margin-top:0px;margin-bottom:0px;text-indent:0;vertical-align:middle;direction:ltr;&quot;&gt;&lt;font style=&quot;font-size:12px;font-family:0;color:#000000;direction:ltr;letter-spacing:0px;line-height:120%;opacity:1&quot;&gt;系统基础&lt;br/&gt;&lt;/font&gt;&lt;font style=&quot;font-size:12px;font-family:0;color:#000000;direction:ltr;letter-spacing:0px;line-height:120%;opacity:1&quot;&gt;信息维护&lt;/font&gt;&lt;/p&gt;&lt;/div&gt;" tags="Background" id="V74mTdHurERI9T-NjPgk-49">
          <mxCell style="verticalAlign=middle;align=center;overflow=width;vsdxID=49;fillColor=#FFFFFF;gradientColor=none;shape=stencil(nZBRDoQgDERP03+WHsHFe5iISyOCQdT19kIaIxq//Jtp3zTpAFaTaUYNUkwx+F6v1EYD+AUpyRkdKCYFqACrzgf9C352LfuxyWRWg1/yhT/nRE5IsZWuZtCSK8CPeI0e/hF+jV7AJM4PO7KWCyr390bSiNtEtQM=);strokeColor=#000000;strokeWidth=2;spacingTop=-3;spacingBottom=-3;spacingLeft=-3;spacingRight=-3;points=[];labelBackgroundColor=none;rounded=0;html=1;whiteSpace=wrap;" vertex="1" parent="1">
            <mxGeometry x="456" y="529" width="85" height="40" as="geometry" />
          </mxCell>
        </UserObject>
        <UserObject label="&lt;div style=&quot;font-size: 1px&quot;&gt;&lt;p style=&quot;text-align:center;margin-left:0;margin-right:0;margin-top:0px;margin-bottom:0px;text-indent:0;vertical-align:middle;direction:ltr;&quot;&gt;&lt;font style=&quot;font-size:12px;font-family:0;color:#000000;direction:ltr;letter-spacing:0px;line-height:120%;opacity:1&quot;&gt;信息自动同步&lt;/font&gt;&lt;/p&gt;&lt;/div&gt;" tags="Background" id="V74mTdHurERI9T-NjPgk-50">
          <mxCell style="vsdxID=50;edgeStyle=none;startArrow=none;endArrow=block;startSize=5;endSize=5;strokeWidth=2;spacingTop=0;spacingBottom=0;spacingLeft=0;spacingRight=0;verticalAlign=middle;html=1;labelBackgroundColor=#ffffff;rounded=0;align=center;exitX=1;exitY=0.5;exitDx=0;exitDy=0;exitPerimeter=0;entryX=0;entryY=0.5;entryDx=0;entryDy=0;entryPerimeter=0;" edge="1" parent="1" source="V74mTdHurERI9T-NjPgk-24" target="V74mTdHurERI9T-NjPgk-25">
            <mxGeometry x="-0.1688" y="14" relative="1" as="geometry">
              <mxPoint as="offset" />
            </mxGeometry>
          </mxCell>
        </UserObject>
        <UserObject label="" tags="Background" id="V74mTdHurERI9T-NjPgk-51">
          <mxCell style="vsdxID=51;edgeStyle=none;startArrow=none;endArrow=block;startSize=5;endSize=5;strokeWidth=2;spacingTop=0;spacingBottom=0;spacingLeft=0;spacingRight=0;verticalAlign=middle;html=1;labelBackgroundColor=#ffffff;rounded=0;exitX=0.49411764705882355;exitY=1;exitDx=0;exitDy=0;exitPerimeter=0;entryX=0.49411764705882355;entryY=0;entryDx=0;entryDy=0;entryPerimeter=0;" edge="1" parent="1" source="V74mTdHurERI9T-NjPgk-23" target="V74mTdHurERI9T-NjPgk-24">
            <mxGeometry relative="1" as="geometry">
              <mxPoint y="169" as="offset" />
              <Array as="points">
                <mxPoint x="713" y="305.5" />
                <mxPoint x="713" y="305.5" />
              </Array>
            </mxGeometry>
          </mxCell>
        </UserObject>
        <UserObject label="" tags="Background" id="V74mTdHurERI9T-NjPgk-52">
          <mxCell style="vsdxID=52;edgeStyle=none;startArrow=none;endArrow=block;startSize=5;endSize=5;strokeWidth=2;spacingTop=0;spacingBottom=0;spacingLeft=0;spacingRight=0;verticalAlign=middle;html=1;labelBackgroundColor=#ffffff;rounded=0;exitX=0.5;exitY=1;exitDx=0;exitDy=0;exitPerimeter=0;entryX=0.49411764705882355;entryY=0;entryDx=0;entryDy=0;entryPerimeter=0;" edge="1" parent="1" source="V74mTdHurERI9T-NjPgk-26" target="V74mTdHurERI9T-NjPgk-27">
            <mxGeometry relative="1" as="geometry">
              <mxPoint y="120" as="offset" />
              <Array as="points">
                <mxPoint x="947" y="266.5" />
                <mxPoint x="947" y="266.5" />
              </Array>
            </mxGeometry>
          </mxCell>
        </UserObject>
        <UserObject label="" tags="Background" id="V74mTdHurERI9T-NjPgk-53">
          <mxCell style="vsdxID=53;edgeStyle=none;startArrow=none;endArrow=block;startSize=5;endSize=5;strokeWidth=2;spacingTop=0;spacingBottom=0;spacingLeft=0;spacingRight=0;verticalAlign=middle;html=1;labelBackgroundColor=#ffffff;rounded=0;exitX=0.49411764705882355;exitY=1;exitDx=0;exitDy=0;exitPerimeter=0;entryX=0.49411764705882355;entryY=0;entryDx=0;entryDy=0;entryPerimeter=0;" edge="1" parent="1" source="V74mTdHurERI9T-NjPgk-27" target="V74mTdHurERI9T-NjPgk-25">
            <mxGeometry relative="1" as="geometry">
              <mxPoint y="127" as="offset" />
              <Array as="points">
                <mxPoint x="947" y="352.5" />
                <mxPoint x="947" y="352.5" />
              </Array>
            </mxGeometry>
          </mxCell>
        </UserObject>
        <UserObject label="" tags="Background" id="V74mTdHurERI9T-NjPgk-54">
          <mxCell style="vsdxID=54;edgeStyle=none;startArrow=none;endArrow=block;startSize=5;endSize=5;strokeWidth=2;spacingTop=0;spacingBottom=0;spacingLeft=0;spacingRight=0;verticalAlign=middle;html=1;labelBackgroundColor=#ffffff;rounded=0;exitX=0.49411764705882355;exitY=1;exitDx=0;exitDy=0;exitPerimeter=0;entryX=0.5;entryY=0;entryDx=0;entryDy=0;entryPerimeter=0;" edge="1" parent="1" source="V74mTdHurERI9T-NjPgk-25" target="V74mTdHurERI9T-NjPgk-28">
            <mxGeometry relative="1" as="geometry">
              <mxPoint y="129" as="offset" />
              <Array as="points">
                <mxPoint x="947" y="447" />
                <mxPoint x="947" y="447" />
              </Array>
            </mxGeometry>
          </mxCell>
        </UserObject>
        <UserObject label="&lt;div style=&quot;font-size: 1px&quot;&gt;&lt;p style=&quot;text-align:center;margin-left:0;margin-right:0;margin-top:0px;margin-bottom:0px;text-indent:0;vertical-align:middle;direction:ltr;&quot;&gt;&lt;font style=&quot;font-size:12px;font-family:0;color:#000000;direction:ltr;letter-spacing:0px;line-height:120%;opacity:1&quot;&gt;数据自动同步&lt;/font&gt;&lt;/p&gt;&lt;/div&gt;" tags="Background" id="V74mTdHurERI9T-NjPgk-55">
          <mxCell style="vsdxID=55;edgeStyle=none;startArrow=none;endArrow=block;startSize=5;endSize=5;strokeWidth=2;spacingTop=0;spacingBottom=0;spacingLeft=0;spacingRight=0;verticalAlign=middle;html=1;labelBackgroundColor=#ffffff;rounded=0;align=center;exitX=0;exitY=0.5;exitDx=0;exitDy=0;exitPerimeter=0;entryX=1;entryY=0.5;entryDx=0;entryDy=0;entryPerimeter=0;" edge="1" parent="1" source="V74mTdHurERI9T-NjPgk-28" target="V74mTdHurERI9T-NjPgk-29">
            <mxGeometry x="0.0387" y="-24" relative="1" as="geometry">
              <mxPoint as="offset" />
            </mxGeometry>
          </mxCell>
        </UserObject>
        <UserObject label="" tags="Background" id="V74mTdHurERI9T-NjPgk-56">
          <mxCell style="vsdxID=56;edgeStyle=none;startArrow=none;endArrow=block;startSize=5;endSize=5;strokeWidth=2;spacingTop=0;spacingBottom=0;spacingLeft=0;spacingRight=0;verticalAlign=middle;html=1;labelBackgroundColor=#ffffff;rounded=0;exitX=0.49411764705882355;exitY=1;exitDx=0;exitDy=0;exitPerimeter=0;entryX=0.5;entryY=0;entryDx=0;entryDy=0;entryPerimeter=0;" edge="1" parent="1" source="V74mTdHurERI9T-NjPgk-29" target="V74mTdHurERI9T-NjPgk-30">
            <mxGeometry relative="1" as="geometry">
              <mxPoint y="149" as="offset" />
              <Array as="points">
                <mxPoint x="717" y="562.13" />
                <mxPoint x="717" y="562.13" />
              </Array>
            </mxGeometry>
          </mxCell>
        </UserObject>
        <UserObject label="&lt;div style=&quot;font-size: 1px&quot;&gt;&lt;p style=&quot;text-align:center;margin-left:0;margin-right:0;margin-top:0px;margin-bottom:0px;text-indent:0;vertical-align:middle;direction:ltr;&quot;&gt;&lt;font style=&quot;font-size:12px;font-family:0;color:#000000;direction:ltr;letter-spacing:0px;line-height:120%;opacity:1&quot;&gt;组别/班别对应&lt;/font&gt;&lt;/p&gt;&lt;/div&gt;" tags="Background" id="V74mTdHurERI9T-NjPgk-57">
          <mxCell style="vsdxID=57;edgeStyle=none;startArrow=block;endArrow=block;startSize=5;endSize=5;strokeWidth=2;spacingTop=0;spacingBottom=0;spacingLeft=0;spacingRight=0;verticalAlign=middle;html=1;labelBackgroundColor=#ffffff;rounded=0;align=center;exitX=0.49411764705882355;exitY=1;exitDx=0;exitDy=0;exitPerimeter=0;entryX=0.6588235294117647;entryY=1;entryDx=0;entryDy=0;entryPerimeter=0;" edge="1" parent="1" source="V74mTdHurERI9T-NjPgk-31" target="V74mTdHurERI9T-NjPgk-33">
            <mxGeometry relative="1" as="geometry">
              <mxPoint x="3" y="-51" as="offset" />
              <Array as="points">
                <mxPoint x="284" y="267" />
                <mxPoint x="511.5" y="267" />
              </Array>
            </mxGeometry>
          </mxCell>
        </UserObject>
        <UserObject label="&lt;div style=&quot;font-size: 1px&quot;&gt;&lt;p style=&quot;text-align:center;margin-left:0;margin-right:0;margin-top:0px;margin-bottom:0px;text-indent:0;vertical-align:middle;direction:ltr;&quot;&gt;&lt;font style=&quot;font-size:12px;font-family:0;color:#000000;direction:ltr;letter-spacing:0px;line-height:120%;opacity:1&quot;&gt;数据同步&lt;/font&gt;&lt;/p&gt;&lt;/div&gt;" tags="Background" id="V74mTdHurERI9T-NjPgk-58">
          <mxCell style="vsdxID=58;edgeStyle=none;startArrow=none;endArrow=block;startSize=5;endSize=5;strokeWidth=2;spacingTop=0;spacingBottom=0;spacingLeft=0;spacingRight=0;verticalAlign=middle;html=1;labelBackgroundColor=#ffffff;rounded=0;align=center;exitX=0.5;exitY=1.011764705882353;exitDx=0;exitDy=0;exitPerimeter=0;entryX=0.5;entryY=1;entryDx=0;entryDy=0;entryPerimeter=0;" edge="1" parent="1" source="V74mTdHurERI9T-NjPgk-40" target="V74mTdHurERI9T-NjPgk-41">
            <mxGeometry relative="1" as="geometry">
              <mxPoint x="354" y="-306" as="offset" />
              <Array as="points">
                <mxPoint x="1390" y="935.46" />
                <mxPoint x="284.5" y="935.46" />
              </Array>
            </mxGeometry>
          </mxCell>
        </UserObject>
        <mxCell id="V74mTdHurERI9T-NjPgk-76" value="&lt;font style=&quot;font-size: 14px;&quot;&gt;数据接收&lt;/font&gt;" style="edgeLabel;html=1;align=center;verticalAlign=middle;resizable=0;points=[];" vertex="1" connectable="0" parent="V74mTdHurERI9T-NjPgk-58">
          <mxGeometry x="0.9015" y="-1" relative="1" as="geometry">
            <mxPoint as="offset" />
          </mxGeometry>
        </mxCell>
        <UserObject label="" tags="Background" id="V74mTdHurERI9T-NjPgk-59">
          <mxCell style="vsdxID=59;edgeStyle=none;startArrow=none;endArrow=block;startSize=5;endSize=5;strokeWidth=2;spacingTop=0;spacingBottom=0;spacingLeft=0;spacingRight=0;verticalAlign=middle;html=1;labelBackgroundColor=#ffffff;rounded=0;exitX=0.5;exitY=0;exitDx=0;exitDy=0;exitPerimeter=0;entryX=0.5;entryY=1;entryDx=0;entryDy=0;entryPerimeter=0;" edge="1" parent="1" source="V74mTdHurERI9T-NjPgk-41" target="V74mTdHurERI9T-NjPgk-36">
            <mxGeometry relative="1" as="geometry">
              <mxPoint y="68" as="offset" />
              <Array as="points">
                <mxPoint x="284" y="642.88" />
                <mxPoint x="284" y="642.88" />
              </Array>
            </mxGeometry>
          </mxCell>
        </UserObject>
        <UserObject label="" tags="Background" id="V74mTdHurERI9T-NjPgk-60">
          <mxCell style="vsdxID=60;edgeStyle=none;startArrow=none;endArrow=block;startSize=5;endSize=5;strokeWidth=2;spacingTop=0;spacingBottom=0;spacingLeft=0;spacingRight=0;verticalAlign=middle;html=1;labelBackgroundColor=#ffffff;rounded=0;exitX=0.49411764705882355;exitY=0;exitDx=0;exitDy=0;exitPerimeter=0;entryX=0;entryY=0.5;entryDx=0;entryDy=0;entryPerimeter=0;" edge="1" parent="1" source="V74mTdHurERI9T-NjPgk-31" target="V74mTdHurERI9T-NjPgk-24">
            <mxGeometry relative="1" as="geometry">
              <mxPoint x="-292" y="316" as="offset" />
              <Array as="points">
                <mxPoint x="284" y="179.27" />
                <mxPoint x="639.58" y="179.27" />
                <mxPoint x="639.58" y="394" />
              </Array>
            </mxGeometry>
          </mxCell>
        </UserObject>
        <UserObject label="" tags="Background" id="V74mTdHurERI9T-NjPgk-61">
          <mxCell style="vsdxID=61;edgeStyle=none;startArrow=none;endArrow=block;startSize=5;endSize=5;strokeWidth=2;spacingTop=0;spacingBottom=0;spacingLeft=0;spacingRight=0;verticalAlign=middle;html=1;labelBackgroundColor=#ffffff;rounded=0;exitX=1;exitY=0.5;exitDx=0;exitDy=0;exitPerimeter=0;entryX=0;entryY=0.5;entryDx=0;entryDy=0;entryPerimeter=0;" edge="1" parent="1" source="V74mTdHurERI9T-NjPgk-33" target="V74mTdHurERI9T-NjPgk-24">
            <mxGeometry relative="1" as="geometry">
              <mxPoint x="-52" y="177" as="offset" />
              <Array as="points">
                <mxPoint x="592.8" y="217" />
                <mxPoint x="592.8" y="394" />
              </Array>
            </mxGeometry>
          </mxCell>
        </UserObject>
        <UserObject label="" tags="Background" id="V74mTdHurERI9T-NjPgk-62">
          <mxCell style="vsdxID=62;edgeStyle=none;startArrow=none;endArrow=block;startSize=5;endSize=5;strokeWidth=2;spacingTop=0;spacingBottom=0;spacingLeft=0;spacingRight=0;verticalAlign=middle;html=1;labelBackgroundColor=#ffffff;rounded=0;exitX=1;exitY=0.5;exitDx=0;exitDy=0;exitPerimeter=0;entryX=0;entryY=0.5;entryDx=0;entryDy=0;entryPerimeter=0;" edge="1" parent="1" source="V74mTdHurERI9T-NjPgk-30" target="V74mTdHurERI9T-NjPgk-43">
            <mxGeometry relative="1" as="geometry">
              <mxPoint x="-260" y="-188" as="offset" />
              <Array as="points">
                <mxPoint x="1030.19" y="630" />
                <mxPoint x="1030.19" y="221.5" />
              </Array>
            </mxGeometry>
          </mxCell>
        </UserObject>
        <UserObject label="" tags="Background" id="V74mTdHurERI9T-NjPgk-63">
          <mxCell style="vsdxID=63;edgeStyle=none;startArrow=none;endArrow=block;startSize=5;endSize=5;strokeWidth=2;spacingTop=0;spacingBottom=0;spacingLeft=0;spacingRight=0;verticalAlign=middle;html=1;labelBackgroundColor=#ffffff;rounded=0;exitX=0.5;exitY=0.8714285714285714;exitDx=0;exitDy=0;exitPerimeter=0;entryX=0.5;entryY=0;entryDx=0;entryDy=0;entryPerimeter=0;" edge="1" parent="1" source="V74mTdHurERI9T-NjPgk-43" target="V74mTdHurERI9T-NjPgk-45">
            <mxGeometry relative="1" as="geometry">
              <mxPoint y="139" as="offset" />
              <Array as="points">
                <mxPoint x="1171" y="286.67" />
                <mxPoint x="1171" y="286.67" />
              </Array>
            </mxGeometry>
          </mxCell>
        </UserObject>
        <UserObject label="" tags="Background" id="V74mTdHurERI9T-NjPgk-64">
          <mxCell style="vsdxID=64;edgeStyle=none;startArrow=none;endArrow=block;startSize=5;endSize=5;strokeWidth=2;spacingTop=0;spacingBottom=0;spacingLeft=0;spacingRight=0;verticalAlign=middle;html=1;labelBackgroundColor=#ffffff;rounded=0;exitX=0.5;exitY=1;exitDx=0;exitDy=0;exitPerimeter=0;entryX=0.5;entryY=0;entryDx=0;entryDy=0;entryPerimeter=0;" edge="1" parent="1" source="V74mTdHurERI9T-NjPgk-45" target="V74mTdHurERI9T-NjPgk-44">
            <mxGeometry relative="1" as="geometry">
              <mxPoint y="138" as="offset" />
              <Array as="points">
                <mxPoint x="1171" y="406.63" />
                <mxPoint x="1171" y="406.63" />
              </Array>
            </mxGeometry>
          </mxCell>
        </UserObject>
        <UserObject label="" tags="Background" id="V74mTdHurERI9T-NjPgk-65">
          <mxCell style="vsdxID=65;edgeStyle=none;startArrow=none;endArrow=block;startSize=5;endSize=5;strokeWidth=2;spacingTop=0;spacingBottom=0;spacingLeft=0;spacingRight=0;verticalAlign=middle;html=1;labelBackgroundColor=#ffffff;rounded=0;exitX=1;exitY=0.5;exitDx=0;exitDy=0;exitPerimeter=0;entryX=0;entryY=0.509090909090909;entryDx=0;entryDy=0;entryPerimeter=0;" edge="1" parent="1" source="V74mTdHurERI9T-NjPgk-30" target="V74mTdHurERI9T-NjPgk-46">
            <mxGeometry relative="1" as="geometry">
              <mxPoint x="-203" y="47" as="offset" />
              <Array as="points">
                <mxPoint x="1030.19" y="630" />
                <mxPoint x="1030.19" y="575.21" />
              </Array>
            </mxGeometry>
          </mxCell>
        </UserObject>
        <UserObject label="" tags="Background" id="V74mTdHurERI9T-NjPgk-66">
          <mxCell style="vsdxID=66;edgeStyle=none;startArrow=none;endArrow=block;startSize=5;endSize=5;strokeWidth=2;spacingTop=0;spacingBottom=0;spacingLeft=0;spacingRight=0;verticalAlign=middle;html=1;labelBackgroundColor=#ffffff;rounded=0;exitX=1;exitY=0.5;exitDx=0;exitDy=0;exitPerimeter=0;entryX=0;entryY=0.509090909090909;entryDx=0;entryDy=0;entryPerimeter=0;" edge="1" parent="1" source="V74mTdHurERI9T-NjPgk-30" target="V74mTdHurERI9T-NjPgk-47">
            <mxGeometry relative="1" as="geometry">
              <mxPoint x="-202" y="156" as="offset" />
              <Array as="points">
                <mxPoint x="1030.19" y="630" />
                <mxPoint x="1030.19" y="684.5" />
              </Array>
            </mxGeometry>
          </mxCell>
        </UserObject>
      </root>
    </mxGraphModel>
  </diagram>
</mxfile>
